<svg width="70" height="11" viewBox="0 0 70 11" fill="none" xmlns="http://www.w3.org/2000/svg">
<path fill-rule="evenodd" clip-rule="evenodd" d="M25.9967 4.4595L21.9021 4.13318L20.3019 0.648972L18.7017 4.13845L14.6071 4.4595L17.7165 6.94897L16.7825 10.649L20.3019 8.68581L23.8213 10.649L22.893 6.94897L25.9967 4.4595ZM20.3019 7.7016L18.1607 8.89634L18.7302 6.64371L16.8395 5.12792L19.3338 4.92792L20.3019 2.80687L21.2757 4.93318L23.77 5.13318L21.8794 6.64897L22.4488 8.9016L20.3019 7.7016Z" fill="#FF9F1C"/>
<path fill-rule="evenodd" clip-rule="evenodd" d="M40.6038 4.4595L36.5093 4.13318L34.9091 0.648972L33.3088 4.13845L29.2143 4.4595L32.3236 6.94897L31.3897 10.649L34.9091 8.68581L38.4284 10.649L37.5002 6.94897L40.6038 4.4595ZM34.9091 7.70161L32.7678 8.89634L33.3373 6.64371L31.4466 5.12792L33.9409 4.92792L34.9091 2.80687L35.8829 4.93319L38.3772 5.13319L36.4865 6.64897L37.056 8.90161L34.9091 7.70161Z" fill="#FF9F1C"/>
<path fill-rule="evenodd" clip-rule="evenodd" d="M54.4421 4.4595L50.3476 4.13318L48.7473 0.648972L47.1471 4.13845L43.0526 4.4595L46.1619 6.94897L45.228 10.649L48.7473 8.68581L52.2667 10.649L51.3385 6.94897L54.4421 4.4595ZM48.7473 7.70161L46.6061 8.89634L47.1756 6.64371L45.2849 5.12792L47.7792 4.92792L48.7473 2.80687L49.7211 4.93319L52.2154 5.13319L50.3248 6.64897L50.8943 8.90161L48.7473 7.70161Z" fill="#FF9F1C"/>
<path fill-rule="evenodd" clip-rule="evenodd" d="M69.0493 4.4595L64.9547 4.13318L63.3545 0.648972L61.7543 4.13845L57.6597 4.4595L60.7691 6.94897L59.8351 10.649L63.3545 8.68581L66.8739 10.649L65.9456 6.94897L69.0493 4.4595ZM63.3545 7.70161L61.2132 8.89634L61.7827 6.64371L59.8921 5.12792L62.3864 4.92792L63.3545 2.80687L64.3283 4.93319L66.8226 5.13319L64.9319 6.64897L65.5014 8.90161L63.3545 7.70161Z" fill="#FF9F1C"/>
<path fill-rule="evenodd" clip-rule="evenodd" d="M5.69481 8.68583L9.21418 10.649L8.28024 6.94899L11.3896 4.45951L7.29504 4.13846L5.69481 0.648987L4.09458 4.13846L3.05176e-05 4.45951L3.10938 6.94899L2.17544 10.649L5.69481 8.68583Z" fill="#FF9F1C"/>
</svg>
